HIERARCHY
ROOT SpineBase
{
  OFFSET 0.000000 0.000000 0.000000
  CHANNELS 6 Xposition Yposition Zposition Zrotation Xrotation Yrotation
  JOINT SpineMid
  {
    OFFSET 0.000000 24.885423 0.000000
    CHANNELS 3 Zrotation Xrotation Yrotation
    JOINT SpineShoulder
    {
      OFFSET 0.161319 18.605433 -1.001730
      CHANNELS 3 Zrotation Xrotation Yrotation
      JOINT Neck
      {
        OFFSET 0.092186 6.203730 -0.630240
        CHANNELS 3 Zrotation Xrotation Yrotation
        JOINT Head
        {
          OFFSET 2.269464 14.084833 -2.096821
          CHANNELS 3 Zrotation Xrotation Yrotation
          End Site
          {
            OFFSET 0 0 0
          }
        }
      }
      JOINT ShoulderLeft
      {
        OFFSET -10.714886 -2.413808 -9.475168
        CHANNELS 3 Zrotation Xrotation Yrotation
        JOINT ElbowLeft
        {
          OFFSET 3.967400 -23.237552 -5.352669
          CHANNELS 3 Zrotation Xrotation Yrotation
          JOINT WristLeft
          {
            OFFSET 11.753919 -17.943503 -16.488590
            CHANNELS 3 Zrotation Xrotation Yrotation
            JOINT HandLeft
            {
              OFFSET 3.972813 -4.841046 -5.697625
              CHANNELS 3 Zrotation Xrotation Yrotation
              JOINT HandTipLeft
              {
                OFFSET 2.883626 -6.132118 -2.516860
                CHANNELS 3 Zrotation Xrotation Yrotation
                End Site
                {
                  OFFSET 0 0 0
                }
              }
              JOINT ThumbLeft
              {
                OFFSET 3.359346 2.803026 -1.283589
                CHANNELS 3 Zrotation Xrotation Yrotation
                End Site
                {
                  OFFSET 0 0 0
                }
              }
            }
          }
        }
      }
      JOINT ShoulderRight
      {
        OFFSET 14.758508 -2.325098 8.711494
        CHANNELS 3 Zrotation Xrotation Yrotation
        JOINT ElbowRight
        {
          OFFSET 6.486653 -25.002400 -2.009086
          CHANNELS 3 Zrotation Xrotation Yrotation
          JOINT WristRight
          {
            OFFSET 6.105172 -14.488130 -16.467739
            CHANNELS 3 Zrotation Xrotation Yrotation
            JOINT HandRight
            {
              OFFSET 1.313809 -2.855508 -2.634899
              CHANNELS 3 Zrotation Xrotation Yrotation
              JOINT HandTipRight
              {
                OFFSET 1.164884 -3.199301 -3.009787
                CHANNELS 3 Zrotation Xrotation Yrotation
                End Site
                {
                  OFFSET 0 0 0
                }
              }
              JOINT ThumbRight
              {
                OFFSET 3.596170 0.855893 1.262086
                CHANNELS 3 Zrotation Xrotation Yrotation
                End Site
                {
                  OFFSET 0 0 0
                }
              }
            }
          }
        }
      }
    }
  }
  JOINT HipLeft
  {
    OFFSET -5.464086 1.482550 -5.957932
    CHANNELS 3 Zrotation Xrotation Yrotation
    JOINT KneeLeft
    {
      OFFSET 15.541401 -5.419021 -28.416485
      CHANNELS 3 Zrotation Xrotation Yrotation
      JOINT AnkleLeft
      {
        OFFSET 7.645532 -31.636275 -0.440984
        CHANNELS 3 Zrotation Xrotation Yrotation
        JOINT FootLeft
        {
          OFFSET 3.336136 -6.227631 -7.244078
          CHANNELS 3 Zrotation Xrotation Yrotation
          End Site
          {
            OFFSET 0 0 0
          }
        }
      }
    }
  }
  JOINT HipRight
  {
    OFFSET 6.015875 0.499523 0.603115
    CHANNELS 3 Zrotation Xrotation Yrotation
    JOINT KneeRight
    {
      OFFSET 32.504914 -5.593469 -10.790324
      CHANNELS 3 Zrotation Xrotation Yrotation
      JOINT AnkleRight
      {
        OFFSET 3.124902 -28.238033 -5.941562
        CHANNELS 3 Zrotation Xrotation Yrotation
        JOINT FootRight
        {
          OFFSET 6.130793 -3.262800 -10.615566
          CHANNELS 3 Zrotation Xrotation Yrotation
          End Site
          {
            OFFSET 0 0 0
          }
        }
      }
    }
  }
}
MOTION
Frames: 15
Frame Time: 0.033333
-36.303943 43.331614 335.470830 -0.218112 -6.048728 -28.623659 -1.704286 1.285045 28.657901 0.654934 0.835998 0.006839 -0.982479 5.879647 -0.535787 0.000000 0.000000 0.000000 -18.792666 60.020924 23.786225 138.859811 -14.953095 -1.360715 5.642472 -15.232694 -3.743701 -5.144827 36.386397 29.487704 0.000000 0.000000 0.000000 0.000000 0.000000 0.000000 70.947248 -21.240253 -0.088608 -121.513313 10.560062 83.523853 -76.323755 -12.471524 -29.986885 92.518832 29.829093 -24.081872 0.000000 0.000000 0.000000 0.000000 0.000000 0.000000 -3.179429 3.665912 31.845104 -2.622925 -0.027624 -3.345534 16.347135 -3.139290 -16.349862 0.000000 0.000000 0.000000 -5.564221 3.247343 33.598157 5.079104 1.377213 -4.829200 -2.539940 -4.133741 -1.808137 0.000000 0.000000 0.000000
-35.962380 43.313125 335.492529 0.374957 -5.942728 -28.432758 -1.831379 1.008143 28.516726 0.632549 0.867341 0.018895 -0.571241 6.157375 -0.545672 0.000000 0.000000 0.000000 -15.215943 58.911164 20.463375 136.357162 -13.424239 -5.023855 6.815403 -17.396956 -1.334188 -3.275992 37.883991 27.047933 0.000000 0.000000 0.000000 0.000000 0.000000 0.000000 70.485176 -19.156681 -0.980487 -120.796825 9.031140 81.570468 -75.508545 -12.009255 -30.526050 96.567541 31.041871 -25.687708 0.000000 0.000000 0.000000 0.000000 0.000000 0.000000 -3.693735 3.431994 32.040073 -2.693403 0.168433 -3.604344 16.305154 -4.638579 -16.913015 0.000000 0.000000 0.000000 -6.161666 2.760185 33.611146 5.263517 1.439781 -4.996947 -3.301742 -5.586352 -2.154352 0.000000 0.000000 0.000000
-35.667349 43.272372 335.511226 0.854067 -5.839407 -28.373927 -1.935966 0.703249 28.497039 0.536708 0.880126 0.022931 0.163995 6.709486 -0.574511 0.000000 0.000000 0.000000 -11.483251 58.043416 17.318563 133.610946 -11.091419 -8.854942 11.341391 -23.721251 5.063193 0.467076 43.132590 20.389654 0.000000 0.000000 0.000000 0.000000 0.000000 0.000000 69.822285 -16.798026 -2.021930 -121.360487 8.593505 81.155355 -79.095540 -9.875071 -30.809701 100.642490 33.108658 -23.655773 0.000000 0.000000 0.000000 0.000000 0.000000 0.000000 -4.081287 2.143143 32.329355 -2.198538 0.959919 -3.897862 18.103072 -2.775885 -17.687602 0.000000 0.000000 0.000000 -7.073107 1.876092 33.933326 6.162562 1.477314 -5.396393 -4.957899 -6.351883 1.843732 0.000000 0.000000 0.000000
-35.470529 43.250466 335.431830 1.085760 -5.623989 -28.103430 -1.934100 0.400453 28.240339 0.443331 0.853426 0.021510 1.567416 7.061429 -0.541640 0.000000 0.000000 0.000000 -7.600768 56.840764 14.186858 131.057046 -9.364711 -12.392063 11.833303 -24.327979 6.299334 1.727525 42.891206 19.500689 0.000000 0.000000 0.000000 0.000000 0.000000 0.000000 68.983029 -14.748157 -2.900039 -120.258710 7.792792 79.488688 -77.985125 -9.459548 -30.329153 96.568035 29.838927 -23.597491 0.000000 0.000000 0.000000 0.000000 0.000000 0.000000 -4.181393 1.338836 32.217175 -1.943421 1.310968 -4.063217 18.098184 -3.889290 -18.354311 0.000000 0.000000 0.000000 -7.660350 1.052648 33.768786 6.988095 1.546458 -5.558119 -6.056444 -6.744442 4.863281 0.000000 0.000000 0.000000
-35.405629 43.273481 335.276702 1.017224 -5.340328 -28.178049 -1.848358 0.148074 28.299848 0.353811 0.784371 0.012922 3.321625 7.281106 -0.476800 0.000000 0.000000 0.000000 -4.367833 55.549225 11.741709 128.615070 -7.743717 -15.490413 10.445956 -22.482304 4.864323 1.029109 40.537049 21.480436 0.000000 0.000000 0.000000 0.000000 0.000000 0.000000 68.124531 -12.999073 -3.587817 -119.300340 7.455320 78.445503 -76.687659 -9.012773 -30.455806 94.718678 30.111367 -22.436893 0.000000 0.000000 0.000000 0.000000 0.000000 0.000000 -4.001877 1.518427 32.284206 -2.220477 0.940111 -4.095174 19.049156 -0.843150 -17.568339 0.000000 0.000000 0.000000 -7.460059 0.792967 33.568886 6.911152 1.581948 -5.309839 -7.887877 -10.399158 4.228718 0.000000 0.000000 0.000000
-35.528086 43.241022 335.053596 0.568837 -4.991992 -27.622817 -1.614656 0.024306 27.696672 0.248995 0.684414 -0.005014 5.474501 7.578466 -0.416318 0.000000 0.000000 0.000000 -1.408464 54.213774 9.721919 126.740988 -6.933346 -17.879268 6.730920 -15.618453 -0.893179 5.540282 30.187332 29.864328 0.000000 0.000000 0.000000 0.000000 0.000000 0.000000 68.164984 -11.967375 -3.923752 -116.847262 6.070911 75.248168 -75.317834 -10.506294 -30.423659 91.194658 33.243093 -20.355456 0.000000 0.000000 0.000000 0.000000 0.000000 0.000000 -3.381077 0.986578 31.400364 -1.928245 1.176589 -3.850830 18.374451 -0.012242 -16.631354 0.000000 0.000000 0.000000 -7.650410 -0.158017 32.568911 8.263937 1.946423 -5.017803 -6.111007 -5.191241 7.795369 0.000000 0.000000 0.000000
-35.678725 43.153820 335.054454 -0.059287 -4.973527 -27.393249 -1.395102 0.106994 27.413497 0.060648 0.671583 -0.032379 7.914897 7.856496 -0.337879 0.000000 0.000000 0.000000 1.494301 52.665918 7.888195 124.554929 -5.928986 -20.459014 5.468250 -10.370566 -4.780330 5.896447 23.219705 36.452944 0.000000 0.000000 0.000000 0.000000 0.000000 0.000000 67.287342 -11.542870 -4.065132 -116.613580 7.140376 76.558428 -75.553169 -9.550576 -30.834232 90.514469 36.576808 -16.307734 0.000000 0.000000 0.000000 0.000000 0.000000 0.000000 -2.785030 1.387740 30.927923 -1.820743 1.051076 -3.666430 17.563296 1.939407 -14.959546 0.000000 0.000000 0.000000 -7.520053 -0.335064 32.338949 9.046004 1.991795 -5.111207 -3.225472 1.671451 8.844737 0.000000 0.000000 0.000000
-35.750978 43.067920 335.176134 -0.662593 -5.163449 -27.280727 -1.328501 0.273025 27.251514 -0.105177 0.579695 -0.061133 10.534154 8.186181 -0.264454 0.000000 0.000000 0.000000 3.379051 50.693571 6.735433 121.843757 -3.654509 -23.863997 14.799433 -14.723756 -2.262476 3.210445 23.750930 38.434075 0.000000 0.000000 0.000000 0.000000 0.000000 0.000000 64.556304 -11.733855 -4.102361 -117.601460 11.124479 82.063184 -79.893415 -6.296231 -33.137465 94.432137 43.953994 -9.800847 0.000000 0.000000 0.000000 0.000000 0.000000 0.000000 -2.342218 2.466659 30.809959 -1.914649 0.586158 -3.695770 16.472444 4.297997 -12.771470 0.000000 0.000000 0.000000 -7.161959 0.059153 32.438543 9.145706 1.776817 -5.334962 -1.652700 5.160022 8.838600 0.000000 0.000000 0.000000
-35.758813 42.579713 335.433378 -1.235368 -5.529895 -26.340477 -1.097051 0.613518 26.266585 -0.104674 0.500855 -0.069653 12.372271 8.564953 -0.263269 0.000000 0.000000 0.000000 5.339032 48.135333 5.187902 118.004810 2.167361 -29.402126 28.618139 -21.418322 5.190641 -0.390897 27.148636 37.374552 0.000000 0.000000 0.000000 0.000000 0.000000 0.000000 61.567927 -12.182545 -4.163910 -122.785990 15.344000 92.295151 -86.199373 0.721189 -37.787343 103.477996 50.238260 -6.322951 0.000000 0.000000 0.000000 0.000000 0.000000 0.000000 -1.979833 4.835598 30.130260 -2.583708 -0.689723 -3.981281 15.506932 6.022464 -10.933501 0.000000 0.000000 0.000000 -6.047094 1.632289 31.760604 7.972452 1.303613 -5.529978 0.641547 7.832341 6.057906 0.000000 0.000000 0.000000
-35.967432 42.455489 335.472767 -1.720258 -5.673662 -26.482216 -0.785450 0.819650 26.364915 -0.009182 0.473653 -0.068356 12.800643 8.798053 -0.302847 0.000000 0.000000 0.000000 5.048340 44.111510 4.790008 113.845323 6.415932 -33.710363 25.570992 -13.021968 -2.619864 8.544967 18.447555 44.014032 0.000000 0.000000 0.000000 0.000000 0.000000 0.000000 56.575959 -12.788397 -4.119181 -129.024538 22.860535 104.689659 -93.787612 8.237205 -36.292550 118.029541 52.342049 -4.956639 0.000000 0.000000 0.000000 0.000000 0.000000 0.000000 -1.592080 5.179562 30.056045 -2.274738 -0.681420 -3.800629 16.318895 11.322280 -9.664823 0.000000 0.000000 0.000000 -5.244375 2.444854 31.873198 7.118580 1.022187 -5.470238 1.666633 8.300030 4.355397 0.000000 0.000000 0.000000
-36.333898 42.531655 335.410379 -2.096279 -5.719041 -27.293608 -0.415852 1.044693 27.141013 0.153500 0.468337 -0.055888 11.961824 8.834104 -0.349411 0.000000 0.000000 0.000000 2.947924 38.923103 5.115616 109.016199 7.487875 -35.940678 11.781901 6.550646 -13.376847 25.329961 6.793950 52.620501 0.000000 0.000000 0.000000 0.000000 0.000000 0.000000 49.453470 -13.848544 -4.004259 -137.820084 36.106706 119.593253 -109.144441 15.027679 -26.073554 145.644598 46.265243 -7.635710 0.000000 0.000000 0.000000 0.000000 0.000000 0.000000 -1.247913 5.746742 30.192615 -2.472525 -0.655551 -3.088087 16.662391 13.323159 -9.054439 0.000000 0.000000 0.000000 -4.436168 3.140204 32.416041 6.082461 0.817698 -5.173920 0.924876 5.624418 3.259008 0.000000 0.000000 0.000000
-36.763827 42.729175 335.185856 -2.304268 -5.593989 -28.556193 -0.147061 1.110806 28.383887 0.259982 0.404804 -0.046295 10.601895 8.793440 -0.393365 0.000000 0.000000 0.000000 0.236814 33.356496 5.589661 101.526736 7.487888 -36.088266 -2.320081 18.248109 -11.513955 44.022140 4.993998 48.945662 0.000000 0.000000 0.000000 0.000000 0.000000 0.000000 41.629353 -15.397315 -3.988018 -150.679738 49.064607 137.806522 -106.248132 18.774467 9.945867 131.263440 23.109592 25.126968 0.000000 0.000000 0.000000 0.000000 0.000000 0.000000 -0.984897 6.272325 30.494903 -2.968277 -0.653111 -2.055273 17.178656 14.152284 -8.917769 0.000000 0.000000 0.000000 -3.298384 4.026844 32.962213 4.459326 0.723022 -4.442005 1.046296 2.604822 -0.865230 0.000000 0.000000 0.000000
-37.214456 42.979901 334.805177 -2.297432 -5.272574 -29.907208 0.070831 1.038155 29.737560 0.388793 0.349474 -0.030945 8.446286 8.599568 -0.441974 0.000000 0.000000 0.000000 -3.117549 27.306589 6.028920 91.128494 6.352227 -34.418474 -10.864930 12.349377 -3.879509 45.028144 15.467433 22.425402 0.000000 0.000000 0.000000 0.000000 0.000000 0.000000 33.177447 -15.979049 -4.178623 -169.106004 61.973805 160.612331 -9.438658 44.385604 20.486014 44.092625 -35.098035 20.394610 0.000000 0.000000 0.000000 0.000000 0.000000 0.000000 -0.766775 4.412846 30.853943 -2.199759 0.502626 -1.080185 18.266193 16.654532 -9.271682 0.000000 0.000000 0.000000 -2.576244 4.311262 33.564711 3.432647 0.632131 -3.717673 -1.009210 -0.594686 0.141598 0.000000 0.000000 0.000000
-37.593718 43.272489 334.343715 -2.086325 -4.789020 -31.094791 0.203039 0.852400 30.948897 0.530348 0.358867 -0.012020 5.976413 7.969111 -0.439335 0.000000 0.000000 0.000000 -6.597535 21.223917 6.217719 75.398328 4.097905 -29.912162 -11.575143 9.790599 0.318185 33.112777 25.133531 8.442499 0.000000 0.000000 0.000000 0.000000 0.000000 0.000000 25.835082 -16.054067 -4.318756 158.863994 73.072472 -164.617410 36.806590 17.253796 3.894243 -1.290914 -11.156849 -4.290372 0.000000 0.000000 0.000000 0.000000 0.000000 0.000000 -0.648741 3.732498 31.184305 -2.062313 0.717311 -0.202023 18.140408 16.173393 -9.508704 0.000000 0.000000 0.000000 -1.833183 4.466551 33.808348 2.310241 0.561473 -2.801672 -2.265657 -3.853064 -1.806824 0.000000 0.000000 0.000000
-37.928001 43.537448 333.839595 -1.786127 -4.235522 -32.509302 0.213979 0.660953 32.394893 0.640939 0.387429 0.004124 3.422867 7.188496 -0.463312 0.000000 0.000000 0.000000 -9.673288 15.404186 6.037870 56.700812 -0.116234 -24.136863 -5.344846 14.879650 0.697284 11.540480 17.467562 12.234641 0.000000 0.000000 0.000000 0.000000 0.000000 0.000000 20.292484 -15.265147 -4.283426 87.918191 75.780577 -92.684763 30.350041 -4.127579 3.836574 5.591871 6.475846 -7.671091 0.000000 0.000000 0.000000 0.000000 0.000000 0.000000 -0.630511 3.846422 31.886437 -2.354835 0.328836 0.561757 18.692420 17.353409 -9.667768 0.000000 0.000000 0.000000 -1.136254 4.499493 34.137466 1.159548 0.695040 -1.709939 -3.755807 -7.578637 -4.114357 0.000000 0.000000 0.000000
